<svg width="116" height="23" viewBox="0 0 116 23" fill="none" xmlns="http://www.w3.org/2000/svg">
<path d="M3.324 22.684C2.412 22.684 1.752 22.54 1.344 22.252C0.936 21.964 0.696 21.652 0.624 21.316C0.528 20.98 0.48 20.728 0.48 20.56C0.504 20.248 0.648 19.996 0.912 19.804C1.152 19.612 1.428 19.516 1.74 19.516C1.932 19.516 2.1 19.564 2.244 19.66C2.388 19.732 2.46 19.9 2.46 20.164C2.46 20.404 2.376 20.572 2.208 20.668C2.04 20.764 1.86 20.812 1.668 20.812C1.5 20.812 1.356 20.788 1.236 20.74C1.092 20.692 1.02 20.668 1.02 20.668C1.02 21.316 1.26 21.748 1.74 21.964C2.22 22.18 2.76 22.288 3.36 22.288C4.296 22.288 5.256 22.024 6.24 21.496C7.248 20.968 8.28 20.272 9.336 19.408C10.392 18.52 11.472 17.536 12.576 16.456C13.704 15.352 14.856 14.248 16.032 13.144C17.304 11.944 18.564 10.756 19.812 9.58C21.084 8.38 22.308 7.3 23.484 6.34C24.66 5.38 25.752 4.612 26.76 4.036C27.768 3.46 28.668 3.172 29.46 3.172C29.724 3.172 29.832 3.22 29.784 3.316C29.76 3.412 29.568 3.484 29.208 3.532C28.368 3.676 27.444 4.06 26.436 4.684C25.452 5.284 24.408 6.064 23.304 7.024C22.2 7.96 21.06 8.992 19.884 10.12C18.732 11.224 17.556 12.34 16.356 13.468C15.252 14.524 14.136 15.592 13.008 16.672C11.904 17.752 10.8 18.748 9.696 19.66C8.616 20.572 7.536 21.304 6.456 21.856C5.4 22.408 4.356 22.684 3.324 22.684ZM14.412 21.064C14.268 21.112 14.1 21.148 13.908 21.172C13.74 21.172 13.692 21.112 13.764 20.992C13.836 20.872 13.968 20.668 14.16 20.38C14.376 20.068 14.568 19.696 14.736 19.264C14.928 18.832 15.024 18.388 15.024 17.932C15.024 17.332 14.916 16.648 14.7 15.88C14.508 15.088 14.184 14.32 13.728 13.576C13.296 12.832 12.708 12.22 11.964 11.74C11.244 11.236 10.356 10.984 9.3 10.984C8.604 10.984 8.004 11.152 7.5 11.488C7.02 11.824 6.648 12.232 6.384 12.712C6.144 13.168 6.024 13.612 6.024 14.044C6.024 14.98 6.3 15.868 6.852 16.708C7.428 17.548 8.292 18.232 9.444 18.76C10.596 19.264 12.024 19.516 13.728 19.516C15.6 19.516 17.28 19.192 18.768 18.544C20.256 17.896 21.504 17.056 22.512 16.024C23.52 14.992 24.228 13.912 24.636 12.784C24.756 12.424 24.852 12.304 24.924 12.424C25.02 12.52 25.068 12.616 25.068 12.712C25.068 13.528 24.792 14.356 24.24 15.196C23.688 16.036 22.908 16.816 21.9 17.536C20.892 18.232 19.728 18.796 18.408 19.228C17.088 19.66 15.648 19.876 14.088 19.876C12.48 19.876 10.992 19.648 9.624 19.192C8.28 18.736 7.188 18.064 6.348 17.176C5.532 16.288 5.124 15.22 5.124 13.972C5.124 13.132 5.472 12.364 6.168 11.668C6.888 10.948 7.932 10.588 9.3 10.588C10.452 10.588 11.412 10.852 12.18 11.38C12.972 11.908 13.608 12.556 14.088 13.324C14.568 14.092 14.916 14.86 15.132 15.628C15.348 16.396 15.456 17.032 15.456 17.536C15.456 18.088 15.384 18.64 15.24 19.192C15.096 19.72 14.94 20.164 14.772 20.524C14.628 20.86 14.508 21.04 14.412 21.064ZM12.288 22.612C12.312 22.588 12.552 22.3 13.008 21.748C13.464 21.196 14.064 20.464 14.808 19.552C15.552 18.64 16.392 17.62 17.328 16.492C18.264 15.34 19.236 14.164 20.244 12.964C21.252 11.764 22.236 10.6 23.196 9.472C24.18 8.32 25.08 7.288 25.896 6.376C26.736 5.44 27.432 4.696 27.984 4.144C28.56 3.592 28.932 3.304 29.1 3.28C29.22 3.232 29.328 3.232 29.424 3.28C29.52 3.328 29.496 3.412 29.352 3.532C29.256 3.604 28.92 4 28.344 4.72C27.768 5.416 27.036 6.34 26.148 7.492C25.284 8.62 24.336 9.868 23.304 11.236C22.296 12.58 21.288 13.924 20.28 15.268C19.272 16.588 18.348 17.812 17.508 18.94C16.692 20.044 16.02 20.932 15.492 21.604C14.988 22.276 14.724 22.612 14.7 22.612C14.604 22.588 14.436 22.564 14.196 22.54C13.98 22.516 13.764 22.504 13.548 22.504C13.332 22.504 13.08 22.516 12.792 22.54C12.528 22.588 12.36 22.612 12.288 22.612ZM32.3577 22.324C31.0857 22.324 30.4497 21.952 30.4497 21.208C30.4497 20.728 30.6057 20.212 30.9177 19.66C31.2537 19.108 31.6617 18.556 32.1417 18.004C32.6217 17.428 33.1017 16.864 33.5817 16.312C34.0857 15.76 34.4937 15.256 34.8057 14.8C35.1417 14.32 35.3097 13.912 35.3097 13.576C35.3097 13.456 35.2497 13.36 35.1297 13.288C35.0337 13.192 34.8897 13.144 34.6977 13.144C34.4097 13.144 34.0017 13.288 33.4737 13.576C32.9697 13.864 32.3217 14.356 31.5297 15.052C30.7617 15.724 29.8497 16.636 28.7937 17.788C27.7377 18.916 26.5257 20.332 25.1577 22.036C24.9417 21.988 24.6177 21.964 24.1857 21.964C23.7537 21.964 23.3817 22.012 23.0697 22.108C23.7657 21.1 24.4497 20.116 25.1217 19.156C25.7937 18.196 26.4057 17.32 26.9577 16.528C27.5337 15.736 27.9897 15.088 28.3257 14.584C28.6617 14.056 28.8297 13.732 28.8297 13.612C28.8297 13.396 28.7217 13.288 28.5057 13.288C28.2657 13.288 27.9657 13.48 27.6057 13.864C27.2457 14.224 26.8497 14.692 26.4177 15.268C25.9857 15.82 25.5417 16.384 25.0857 16.96L24.7617 16.744C25.2417 16.192 25.7097 15.616 26.1657 15.016C26.6217 14.416 27.0897 13.9 27.5697 13.468C28.0497 13.036 28.5537 12.82 29.0817 12.82C29.3457 12.82 29.5857 12.892 29.8017 13.036C30.0417 13.156 30.1617 13.36 30.1617 13.648C30.1617 13.912 30.0537 14.236 29.8377 14.62C29.6457 14.98 29.3817 15.4 29.0457 15.88C28.7097 16.336 28.3257 16.852 27.8937 17.428C27.4857 17.98 27.0537 18.58 26.5977 19.228L26.6337 19.444C27.9057 18.052 28.9737 16.924 29.8377 16.06C30.7257 15.196 31.4577 14.536 32.0337 14.08C32.6337 13.6 33.1497 13.276 33.5817 13.108C34.0377 12.916 34.4697 12.82 34.8777 12.82C35.4297 12.82 35.8257 12.94 36.0657 13.18C36.3057 13.396 36.4257 13.696 36.4257 14.08C36.4257 14.656 36.2577 15.268 35.9217 15.916C35.5857 16.54 35.1657 17.164 34.6617 17.788C34.1817 18.388 33.6897 18.952 33.1857 19.48C32.7057 19.984 32.2977 20.416 31.9617 20.776C31.6257 21.136 31.4577 21.376 31.4577 21.496C31.4577 21.64 31.4937 21.748 31.5657 21.82C31.6617 21.892 31.8897 21.928 32.2497 21.928C33.1377 21.928 33.9777 21.652 34.7697 21.1C35.5857 20.548 36.3657 19.876 37.1097 19.084C37.8537 18.268 38.5497 17.464 39.1977 16.672L39.4857 16.924C38.8377 17.692 38.1297 18.496 37.3617 19.336C36.5937 20.176 35.7897 20.884 34.9497 21.46C34.1097 22.036 33.2457 22.324 32.3577 22.324ZM50.6606 0.184C50.9246 0.231999 51.2486 0.255999 51.6326 0.255999C52.0406 0.255999 52.3646 0.231999 52.6046 0.184L40.0766 17.644C39.6926 18.22 39.3206 18.76 38.9606 19.264C38.6006 19.768 38.3126 20.212 38.0966 20.596C37.8566 20.956 37.7366 21.244 37.7366 21.46C37.7366 21.628 37.8086 21.748 37.9526 21.82C38.0726 21.892 38.2526 21.928 38.4926 21.928C39.0446 21.928 39.6566 21.736 40.3286 21.352C41.0006 20.944 41.6606 20.44 42.3086 19.84C42.9806 19.24 43.5926 18.652 44.1446 18.076C44.7206 17.5 45.1766 17.032 45.5126 16.672L45.7646 16.888C45.4526 17.224 45.0206 17.692 44.4686 18.292C43.9166 18.892 43.2806 19.504 42.5606 20.128C41.8646 20.728 41.1326 21.244 40.3646 21.676C39.6206 22.108 38.8886 22.324 38.1686 22.324C37.7846 22.324 37.4606 22.216 37.1966 22C36.9086 21.784 36.7646 21.472 36.7646 21.064C36.7646 20.8 36.8606 20.464 37.0526 20.056C37.2446 19.648 37.4846 19.228 37.7726 18.796C38.0366 18.34 38.3006 17.932 38.5646 17.572C38.8046 17.188 38.9966 16.9 39.1406 16.708L50.6606 0.184ZM44.7487 22.324C44.4127 22.324 44.0407 22.228 43.6327 22.036C43.2007 21.868 42.9847 21.58 42.9847 21.172C42.9847 20.668 43.2127 20.032 43.6687 19.264C44.1247 18.496 44.6887 17.704 45.3607 16.888C46.0088 16.072 46.6448 15.304 47.2688 14.584C47.8928 13.864 48.3608 13.3 48.6728 12.892C48.9368 12.916 49.2488 12.928 49.6088 12.928C49.9928 12.928 50.3288 12.916 50.6168 12.892C50.2808 13.3 49.8368 13.816 49.2848 14.44C48.7568 15.064 48.1928 15.736 47.5928 16.456C47.0168 17.152 46.4528 17.836 45.9008 18.508C45.3727 19.18 44.9407 19.78 44.6047 20.308C44.2687 20.836 44.1007 21.22 44.1007 21.46C44.1007 21.628 44.1727 21.748 44.3167 21.82C44.4607 21.892 44.7007 21.928 45.0367 21.928C45.6128 21.928 46.2488 21.712 46.9448 21.28C47.6648 20.824 48.3608 20.284 49.0328 19.66C49.7048 19.036 50.3048 18.448 50.8328 17.896C51.3608 17.32 51.7328 16.9 51.9488 16.636L52.2368 16.888C52.0208 17.128 51.6488 17.548 51.1208 18.148C50.6168 18.724 50.0048 19.336 49.2848 19.984C48.5888 20.632 47.8448 21.184 47.0528 21.64C46.2848 22.096 45.5167 22.324 44.7487 22.324ZM51.9488 10.156C51.6608 10.156 51.4448 10.072 51.3008 9.904C51.1568 9.712 51.0848 9.496 51.0848 9.256C51.0848 8.992 51.2288 8.716 51.5168 8.428C51.8048 8.14 52.1048 7.996 52.4168 7.996C52.7528 7.996 52.9928 8.092 53.1368 8.284C53.2808 8.452 53.3528 8.62 53.3528 8.788C53.3528 9.148 53.2088 9.472 52.9208 9.76C52.6328 10.024 52.3088 10.156 51.9488 10.156ZM68.9233 12.82C70.1233 12.82 70.7233 13.396 70.7233 14.548C70.7233 15.436 70.5193 16.348 70.1113 17.284C69.7033 18.196 69.1513 19.036 68.4553 19.804C67.7593 20.548 67.0033 21.16 66.1873 21.64C65.3713 22.096 64.5433 22.324 63.7033 22.324C63.0553 22.324 62.5153 22.168 62.0833 21.856C61.6273 21.52 61.3993 20.98 61.3993 20.236C61.3993 19.54 61.6033 18.772 62.0113 17.932C62.4193 17.068 62.9713 16.252 63.6673 15.484C64.3873 14.716 65.1913 14.08 66.0793 13.576C66.9913 13.072 67.9393 12.82 68.9233 12.82ZM69.3193 13.324C68.9113 13.324 68.4313 13.504 67.8793 13.864C67.3273 14.224 66.7633 14.692 66.1873 15.268C65.6113 15.844 65.0713 16.468 64.5673 17.14C64.0873 17.788 63.6913 18.424 63.3793 19.048C63.0913 19.672 62.9473 20.2 62.9473 20.632C62.9473 21.112 63.0793 21.448 63.3433 21.64C63.6073 21.808 63.9073 21.892 64.2433 21.892C64.7953 21.892 65.4193 21.664 66.1153 21.208C66.8113 20.728 67.4833 20.128 68.1313 19.408C68.7793 18.688 69.3073 17.932 69.7153 17.14C70.1473 16.324 70.3633 15.58 70.3633 14.908C70.3633 14.284 70.2553 13.864 70.0393 13.648C69.8233 13.432 69.5833 13.324 69.3193 13.324ZM69.9673 17.032C70.0873 17.032 70.1353 17.08 70.1113 17.176C70.1113 17.248 70.0513 17.284 69.9313 17.284C69.8353 17.284 69.6913 17.416 69.4993 17.68C69.3313 17.92 69.1753 18.172 69.0313 18.436C68.8873 18.7 68.8153 18.844 68.8153 18.868C68.8153 19.42 69.0193 19.696 69.4273 19.696C69.8113 19.696 70.2433 19.516 70.7233 19.156C71.2273 18.796 71.7073 18.388 72.1633 17.932C72.6433 17.452 73.0273 17.032 73.3153 16.672L73.6033 16.924C73.2913 17.284 72.8953 17.716 72.4153 18.22C71.9353 18.7 71.4313 19.132 70.9033 19.516C70.3753 19.876 69.8833 20.056 69.4273 20.056C69.0433 20.056 68.7793 19.972 68.6353 19.804C68.4913 19.636 68.4193 19.336 68.4193 18.904C68.4193 18.328 68.6113 17.872 68.9953 17.536C69.4033 17.2 69.7273 17.032 69.9673 17.032ZM86.4893 22.324C85.9613 22.324 85.5413 22.216 85.2293 22C84.9173 21.784 84.7613 21.508 84.7613 21.172C84.7613 20.74 84.9293 20.26 85.2653 19.732C85.6013 19.18 86.0093 18.604 86.4893 18.004C86.9933 17.404 87.4853 16.828 87.9653 16.276C88.4693 15.7 88.8893 15.184 89.2253 14.728C89.5613 14.272 89.7293 13.9 89.7293 13.612C89.7293 13.42 89.6813 13.288 89.5853 13.216C89.4893 13.144 89.3213 13.108 89.0813 13.108C88.7213 13.108 88.2413 13.3 87.6413 13.684C87.0653 14.044 86.4173 14.548 85.6973 15.196C85.0013 15.82 84.2813 16.528 83.5373 17.32C82.8173 18.088 82.1213 18.88 81.4493 19.696C80.7773 20.512 80.2013 21.28 79.7213 22C79.4333 21.904 79.1093 21.868 78.7493 21.892C78.3893 21.916 78.0053 21.964 77.5973 22.036C78.1493 21.34 78.7733 20.572 79.4693 19.732C80.1893 18.868 80.8733 18.028 81.5213 17.212C82.1693 16.396 82.7093 15.664 83.1413 15.016C83.5733 14.344 83.7893 13.852 83.7893 13.54C83.7893 13.372 83.7173 13.264 83.5733 13.216C83.4533 13.144 83.2733 13.108 83.0333 13.108C82.5293 13.108 81.8813 13.408 81.0893 14.008C80.2973 14.608 79.4573 15.376 78.5693 16.312C77.6813 17.224 76.8053 18.196 75.9413 19.228C75.1013 20.236 74.3573 21.16 73.7093 22C73.4693 21.928 73.1813 21.892 72.8453 21.892C72.5093 21.868 72.1013 21.916 71.6213 22.036C72.5093 20.716 73.3853 19.468 74.2493 18.292C75.1373 17.092 75.8693 16.06 76.4453 15.196C77.0453 14.332 77.3453 13.756 77.3453 13.468C77.3453 13.396 77.3213 13.348 77.2733 13.324C77.2493 13.276 77.2013 13.252 77.1293 13.252C76.8893 13.252 76.5533 13.48 76.1213 13.936C75.7133 14.392 75.2813 14.908 74.8253 15.484C74.3693 16.06 73.9613 16.552 73.6013 16.96L73.2773 16.744C73.5173 16.48 73.8053 16.132 74.1413 15.7C74.4773 15.244 74.8373 14.8 75.2213 14.368C75.6293 13.912 76.0373 13.528 76.4453 13.216C76.8533 12.904 77.2493 12.748 77.6333 12.748C77.9213 12.748 78.1613 12.832 78.3533 13C78.5693 13.144 78.6773 13.336 78.6773 13.576C78.6773 13.888 78.5813 14.236 78.3893 14.62C78.1973 14.98 77.9333 15.4 77.5973 15.88C77.2613 16.336 76.8773 16.84 76.4453 17.392C76.0373 17.944 75.6053 18.556 75.1493 19.228L75.2213 19.372C75.7013 18.868 76.1933 18.316 76.6973 17.716C77.2253 17.116 77.7653 16.528 78.3173 15.952C78.8693 15.376 79.4213 14.848 79.9733 14.368C80.5253 13.888 81.0893 13.504 81.6653 13.216C82.2413 12.928 82.8053 12.784 83.3573 12.784C83.9333 12.784 84.3293 12.928 84.5453 13.216C84.7613 13.504 84.8693 13.78 84.8693 14.044C84.8693 14.428 84.7973 14.812 84.6533 15.196C84.5093 15.58 84.3293 15.952 84.1133 16.312C83.8973 16.648 83.6813 16.96 83.4653 17.248C83.2493 17.512 83.0573 17.728 82.8893 17.896C82.7213 18.064 82.6253 18.172 82.6013 18.22L82.3853 18.04C82.5533 17.872 82.8173 17.584 83.1773 17.176C83.5373 16.768 83.9573 16.324 84.4373 15.844C84.9413 15.34 85.4693 14.86 86.0213 14.404C86.5733 13.924 87.1253 13.54 87.6773 13.252C88.2293 12.94 88.7573 12.784 89.2613 12.784C89.8613 12.784 90.2693 12.94 90.4853 13.252C90.7253 13.54 90.8453 13.804 90.8453 14.044C90.8453 14.572 90.6773 15.16 90.3413 15.808C90.0053 16.432 89.5853 17.068 89.0813 17.716C88.5773 18.34 88.0733 18.928 87.5693 19.48C87.0653 20.032 86.6453 20.5 86.3093 20.884C85.9733 21.244 85.8053 21.472 85.8053 21.568C85.8053 21.784 86.0573 21.892 86.5613 21.892C87.2093 21.892 87.8573 21.688 88.5053 21.28C89.1773 20.872 89.8133 20.38 90.4133 19.804C91.0133 19.204 91.5533 18.616 92.0333 18.04C92.5373 17.44 92.9453 16.972 93.2573 16.636L93.5453 16.852C93.2573 17.164 92.8493 17.62 92.3213 18.22C91.8173 18.82 91.2413 19.444 90.5933 20.092C89.9453 20.716 89.2733 21.244 88.5773 21.676C87.8813 22.108 87.1853 22.324 86.4893 22.324ZM100.989 15.7C100.893 15.892 100.749 16.06 100.557 16.204C100.389 16.348 100.257 16.444 100.161 16.492C100.089 16.516 100.113 16.444 100.233 16.276C100.665 15.748 100.941 15.256 101.061 14.8C101.205 14.344 101.205 13.984 101.061 13.72C100.941 13.432 100.701 13.288 100.341 13.288C99.8606 13.288 99.2966 13.48 98.6486 13.864C98.0006 14.248 97.3286 14.752 96.6326 15.376C95.9606 16 95.3246 16.672 94.7246 17.392C94.1486 18.088 93.6806 18.772 93.3206 19.444C92.9606 20.092 92.7806 20.656 92.7806 21.136C92.7806 21.496 92.8526 21.724 92.9966 21.82C93.1406 21.916 93.2846 21.964 93.4286 21.964C93.9806 21.964 94.6166 21.712 95.3366 21.208C96.0806 20.68 96.8366 20.02 97.6046 19.228C98.3726 18.436 99.1046 17.632 99.8006 16.816C100.497 15.976 101.097 15.22 101.601 14.548C102.129 13.876 102.489 13.42 102.681 13.18C102.945 13.276 103.257 13.312 103.617 13.288C104.001 13.264 104.325 13.24 104.589 13.216C104.541 13.288 104.289 13.588 103.833 14.116C103.401 14.644 102.873 15.28 102.249 16.024C101.649 16.744 101.037 17.488 100.413 18.256C99.8126 19.024 99.3086 19.696 98.9006 20.272C98.4926 20.848 98.2886 21.232 98.2886 21.424C98.2886 21.664 98.3366 21.82 98.4326 21.892C98.5526 21.94 98.7326 21.964 98.9726 21.964C99.2606 21.94 99.6806 21.808 100.233 21.568C100.785 21.304 101.493 20.8 102.357 20.056C103.221 19.312 104.265 18.208 105.489 16.744C105.489 16.744 105.537 16.78 105.633 16.852C105.753 16.924 105.813 16.96 105.813 16.96C104.373 18.64 103.041 19.96 101.817 20.92C100.593 21.856 99.4766 22.324 98.4686 22.324C97.9406 22.324 97.5806 22.24 97.3886 22.072C97.2206 21.904 97.1366 21.664 97.1366 21.352C97.1366 21.112 97.2326 20.824 97.4246 20.488C97.6406 20.128 97.8806 19.78 98.1446 19.444C98.4086 19.108 98.6246 18.844 98.7926 18.652C98.7926 18.652 98.7686 18.64 98.7206 18.616C98.6726 18.592 98.6486 18.58 98.6486 18.58C98.0966 19.252 97.5086 19.876 96.8846 20.452C96.2606 21.028 95.6366 21.484 95.0126 21.82C94.4126 22.156 93.8246 22.324 93.2486 22.324C92.6486 22.324 92.2286 22.18 91.9886 21.892C91.7486 21.58 91.6286 21.112 91.6286 20.488C91.6286 19.888 91.8206 19.168 92.2046 18.328C92.5886 17.464 93.1406 16.624 93.8606 15.808C94.5806 14.968 95.4446 14.272 96.4526 13.72C97.4846 13.168 98.6366 12.892 99.9086 12.892C100.533 12.892 100.965 13.012 101.205 13.252C101.445 13.468 101.553 13.732 101.529 14.044C101.505 14.356 101.433 14.668 101.313 14.98C101.193 15.292 101.085 15.532 100.989 15.7ZM105.48 17.284C105.384 17.38 105.312 17.392 105.264 17.32C105.216 17.224 105.204 17.128 105.228 17.032C105.636 16.624 106.032 16.144 106.416 15.592C106.824 15.04 107.16 14.524 107.424 14.044C107.712 13.564 107.88 13.24 107.928 13.072C107.976 13.072 108.048 13.036 108.144 12.964C108.264 12.892 108.372 12.868 108.468 12.892C108.444 13.06 108.408 13.216 108.36 13.36C108.336 13.504 108.42 13.636 108.612 13.756C108.804 13.876 109.2 13.996 109.8 14.116C110.4 14.236 111.312 14.368 112.536 14.512C112.656 14.536 112.74 14.584 112.788 14.656C112.86 14.704 112.824 14.788 112.68 14.908C112.224 15.268 111.72 15.724 111.168 16.276C110.616 16.828 110.076 17.416 109.548 18.04C109.044 18.64 108.624 19.228 108.288 19.804C107.976 20.38 107.82 20.86 107.82 21.244C107.82 21.676 108.012 21.892 108.396 21.892C108.876 21.892 109.416 21.7 110.016 21.316C110.64 20.932 111.264 20.464 111.888 19.912C112.512 19.336 113.088 18.76 113.616 18.184C114.168 17.584 114.624 17.092 114.984 16.708L115.272 16.924C114.936 17.26 114.504 17.728 113.976 18.328C113.448 18.928 112.848 19.54 112.176 20.164C111.528 20.764 110.832 21.28 110.088 21.712C109.344 22.12 108.576 22.324 107.784 22.324C107.328 22.324 106.92 22.216 106.56 22C106.2 21.808 106.02 21.448 106.02 20.92C106.02 20.416 106.236 19.888 106.668 19.336C107.1 18.784 107.64 18.232 108.288 17.68C108.936 17.104 109.608 16.564 110.304 16.06C111.024 15.532 111.66 15.052 112.212 14.62L112.464 14.944C112.224 14.848 111.804 14.764 111.204 14.692C110.604 14.596 109.98 14.476 109.332 14.332C108.684 14.164 108.12 13.948 107.64 13.684C107.184 13.42 106.956 13.06 106.956 12.604C106.956 12.364 107.052 12.076 107.244 11.74C107.46 11.38 107.748 11.2 108.108 11.2C108.444 11.2 108.672 11.272 108.792 11.416C108.912 11.536 108.972 11.704 108.972 11.92C108.972 12.064 108.852 12.364 108.612 12.82C108.372 13.252 108.072 13.768 107.712 14.368C107.352 14.944 106.968 15.496 106.56 16.024C106.176 16.552 105.816 16.972 105.48 17.284Z" fill="black"/>
</svg>
